<?xml version="1.0" encoding="iso-8859-1"?>
<!-- Generator: Adobe Illustrator 19.0.0, SVG Export Plug-In . SVG Version: 6.00 Build 0)  -->
<svg version="1.1" id="Capa_1" xmlns="http://www.w3.org/2000/svg" xmlns:xlink="http://www.w3.org/1999/xlink" x="0px" y="0px"
	 viewBox="0 0 269.475 269.475" style="enable-background:new 0 0 269.475 269.475;" xml:space="preserve">
<g>
	<g>
		<g>
			<path style="fill:#6A6E72;" d="M39.687,1.71C24.818,18.051,31.2,57.065,52.013,78.803l55.731-40.668
				C93.134,18.001,63.192-6.768,39.687,1.71z"/>
			<path style="fill:#EDA9A2;" d="M56.53,66.035c0,0-21.193-42.331-9.144-53.507c12.05-11.176,48.01,27.112,48.01,27.112
				L56.53,66.035z"/>
		</g>
		<g>
			<path style="fill:#8D9299;" d="M229.788,1.71c14.868,16.341,8.487,55.355-12.325,77.093l-55.731-40.668
				C176.341,18.001,206.282-6.768,229.788,1.71z"/>
			<path style="fill:#EDA9A2;" d="M212.945,66.035c0,0,21.193-42.331,9.144-53.507c-12.05-11.176-48.01,27.112-48.01,27.112
				L212.945,66.035z"/>
		</g>
	</g>
	<g>
		<path style="fill:#6A6E72;" d="M131.22,219.746l-38.098-13.518c-4.722,18.178-7.357,52.804,14.475,61.744
			C132.647,278.23,131.22,233.109,131.22,219.746z"/>
		<path style="fill:#6A6E72;" d="M135.56,219.746l38.096-13.518c4.724,18.178,7.359,52.804-14.473,61.744
			C134.132,278.23,135.56,233.109,135.56,219.746z"/>
	</g>
	<g>
		<path style="fill:#6A6E72;" d="M85.472,143.392c-10.784,5.069-16.553,24.755-18.141,35.165
			c-2.857,18.723,11.004,41.265,30.478,34.635l4.915-60.217C103.431,143.317,94.055,139.359,85.472,143.392z"/>
		<path style="fill:#6A6E72;" d="M181.306,143.392c10.785,5.069,16.556,24.755,18.142,35.165
			c2.857,18.723-11.003,41.265-30.478,34.635l-4.915-60.217C163.349,143.317,172.724,139.359,181.306,143.392z"/>
	</g>
	<path style="fill:#979AA0;" d="M102.915,144.081c23.954-23.265,63.417-10.909,73.394,18.363c7.387,21.665,7.985,50.638-10.54,66.82
		c-19.244,16.813-52.812,12.247-68.541-6.363C79.295,201.686,82.979,163.445,102.915,144.081z"/>
	<path style="fill:#6A6E72;" d="M95.396,149.827c0,0,40.148,46.61,76.806,0H95.396z"/>
	<path style="fill:#A8ACB2;" d="M213.469,62.999c-16.361-23.886-49.622-34.228-80.08-33.473
		c-30.456-0.754-63.718,9.587-80.079,33.473c-25.266,36.884,4.772,76.683,42.087,88.836c12.013,3.911,25.063,6.034,37.992,6.162
		c12.931-0.127,25.98-2.25,37.993-6.162C208.695,139.682,238.734,99.883,213.469,62.999z"/>
	<g>
		<path style="fill:#EDA9A2;" d="M73.712,137.449c-6.615-3.224-10.702-10.202-7.269-21.139c5.813-18.513,35.644-20.244,38.315,1.541
			C107.04,136.464,86.009,143.44,73.712,137.449z"/>
		<path style="fill:#EDA9A2;" d="M193.067,137.449c6.615-3.224,10.703-10.202,7.267-21.139
			c-5.812-18.513-35.642-20.244-38.314,1.541C159.737,136.464,180.771,143.44,193.067,137.449z"/>
	</g>
	<path style="fill:#6A6E72;" d="M177.111,59.491c39.066,7.096,26.939,68.188-14.842,59.975
		C116.556,110.479,133.185,51.511,177.111,59.491z"/>
	<g>
		<g>
			<g>
				<circle style="fill:#FFFFFF;" cx="96.608" cy="99.584" r="16.894"/>
				<circle cx="96.608" cy="99.584" r="11.069"/>
			</g>
			<circle style="fill:#FFFFFF;" cx="104.44" cy="92.612" r="5.531"/>
		</g>
		<g>
			<g>
				<circle style="fill:#FFFFFF;" cx="169.492" cy="99.584" r="16.894"/>
				<circle cx="169.492" cy="99.584" r="11.068"/>
			</g>
			<circle style="fill:#FFFFFF;" cx="177.324" cy="92.612" r="5.53"/>
		</g>
	</g>
	<path d="M150.37,119.379c-3.809-10.558-30.061-10.637-33.889,0.006C111.073,134.428,155.313,133.109,150.37,119.379z
		 M140.56,104.774c-0.051-0.008-0.025-0.018,0-0.026C140.583,104.756,140.609,104.767,140.56,104.774z"/>
	<path d="M150.81,132.375c-5.709,18.105-28.697,14.971-35.313-0.686c-1.436-3.395-6.375-0.469-4.953,2.896
		c4.05,9.582,13.252,15.801,23.617,16.178c10.703,0.388,19.08-7.037,22.179-16.864C157.457,130.362,151.92,128.86,150.81,132.375z"
		/>
	<g>
		<path style="fill:#CBCED1;" d="M86.902,55.317c6.169-0.183,12.646,4.587,5.446,11.18c-4.604,4.215-13.705,2.621-13.231-4.482
			C79.424,57.419,83.105,55.429,86.902,55.317z"/>
		<path style="fill:#CBCED1;" d="M179.878,55.317c-6.169-0.183-12.646,4.587-5.447,11.18c4.602,4.215,13.704,2.621,13.231-4.482
			C187.356,57.419,183.675,55.429,179.878,55.317z"/>
	</g>
	<path style="opacity:0.7;fill:#CBCED1;" d="M142.127,175.738c36.835,7.467,29.958,60.207-13.542,53.05
		C88.6,222.209,97.444,166.682,142.127,175.738z"/>
</g>
<g>
</g>
<g>
</g>
<g>
</g>
<g>
</g>
<g>
</g>
<g>
</g>
<g>
</g>
<g>
</g>
<g>
</g>
<g>
</g>
<g>
</g>
<g>
</g>
<g>
</g>
<g>
</g>
<g>
</g>
</svg>
