<?xml version="1.0" standalone="no"?>
<!DOCTYPE svg PUBLIC "-//W3C//DTD SVG 20010904//EN"
 "http://www.w3.org/TR/2001/REC-SVG-20010904/DTD/svg10.dtd">
<svg version="1.0" xmlns="http://www.w3.org/2000/svg"
 width="500.000000pt" height="500.000000pt" viewBox="0 0 500.000000 500.000000"
 preserveAspectRatio="xMidYMid meet">

<g transform="translate(0.000000,500.000000) scale(0.100000,-0.100000)"
fill="#ffffff" stroke="none">
<path d="M0 2500 l0 -2500 2500 0 2500 0 0 2500 0 2500 -2500 0 -2500 0 0
-2500z m1589 1355 c35 -9 101 -33 147 -54 79 -37 294 -170 294 -182 0 -3 -21
-15 -46 -27 -45 -22 -46 -22 -72 -3 -40 28 -220 117 -275 135 -91 30 -127 19
-153 -49 -14 -39 -16 -66 -11 -188 4 -78 13 -176 21 -217 14 -74 14 -75 -11
-118 -14 -24 -28 -40 -32 -35 -8 9 -24 108 -42 271 -13 121 -7 340 12 395 16
49 52 87 81 87 13 0 52 -7 87 -15z m1986 -8 c18 -15 31 -41 41 -82 16 -71 19
-282 4 -405 -20 -172 -32 -250 -39 -250 -3 0 -17 17 -30 37 l-24 37 18 130
c34 249 21 390 -39 418 -49 22 -195 -30 -364 -131 l-53 -31 -46 23 -45 24 48
34 c142 102 287 176 399 205 74 18 101 17 130 -9z m-1935 -139 c39 -12 183
-84 244 -121 l38 -24 -86 -57 c-92 -62 -238 -193 -277 -251 -13 -19 -27 -35
-30 -35 -10 0 -19 44 -35 169 -24 196 -12 304 36 328 25 12 44 11 110 -9z
m1867 7 c30 -21 43 -74 43 -174 0 -72 -23 -273 -35 -308 -2 -7 -59 43 -127
110 -74 73 -152 140 -195 167 -40 25 -73 48 -73 52 0 19 235 140 307 157 54
13 56 13 80 -4z m-766 -55 c189 -39 361 -116 507 -230 372 -288 517 -719 357
-1057 -29 -63 -41 -77 -90 -108 -135 -87 -336 -155 -587 -199 -76 -13 -91 -13
-116 -1 -24 12 -48 13 -143 4 -133 -12 -176 -27 -185 -65 -9 -37 7 -77 37 -91
39 -19 274 9 303 35 13 13 49 24 96 32 106 16 310 67 392 97 38 13 72 22 75
20 10 -10 -129 -99 -228 -147 -199 -94 -399 -135 -654 -134 -392 3 -722 126
-934 349 -112 118 -176 244 -200 396 -15 92 -13 151 8 255 84 409 475 766 927
848 121 22 317 20 435 -4z m956 -576 c98 -182 123 -420 59 -560 -26 -56 -95
-158 -102 -151 -2 2 8 48 22 103 22 87 25 113 21 214 -6 120 -20 190 -63 296
-21 53 -24 73 -19 118 7 50 9 54 29 47 11 -4 35 -34 53 -67z m-1966 -1094 c98
-71 322 -154 504 -188 141 -26 447 -23 590 6 170 34 303 82 438 159 43 24 80
43 82 41 5 -5 56 -142 120 -323 29 -82 62 -174 74 -203 12 -29 21 -67 21 -85
0 -41 -31 -92 -67 -110 -29 -15 -184 -60 -188 -55 -2 2 -12 30 -23 63 -55 161
-115 279 -149 292 -37 14 -82 -96 -123 -304 -26 -130 -3 -115 -214 -134 -212
-19 -782 4 -812 34 -3 2 -15 57 -28 120 -39 192 -83 296 -119 284 -32 -10
-127 -203 -153 -311 -6 -27 -9 -28 -48 -22 -22 4 -61 17 -86 29 -36 18 -49 33
-64 70 l-19 46 25 73 c15 40 56 156 93 258 36 102 74 206 82 233 9 26 21 47
26 47 5 0 22 -9 38 -20z m146 -456 c30 -52 99 -339 84 -348 -7 -5 -168 26
-238 45 l-42 11 30 83 c56 161 109 260 133 252 6 -2 21 -21 33 -43z m1292 -3
c26 -40 91 -197 115 -278 8 -26 11 -25 -149 -58 -66 -13 -123 -21 -128 -16 -9
9 34 213 65 306 19 57 42 95 59 95 4 0 21 -22 38 -49z"/>
<path d="M2855 3269 c-38 -3 -121 -22 -182 -42 -62 -20 -133 -37 -157 -37 -25
0 -102 18 -173 41 -127 40 -129 41 -248 36 -96 -4 -135 -10 -194 -31 -164 -58
-267 -161 -323 -325 -19 -54 -23 -87 -23 -181 0 -137 21 -195 90 -259 99 -91
247 -83 507 28 54 22 105 41 113 41 8 0 48 -22 90 -49 41 -27 91 -55 110 -61
35 -11 35 -12 35 -68 -1 -137 -108 -209 -247 -167 -37 12 -28 -21 8 -34 80
-28 172 -1 228 65 20 23 35 34 38 27 31 -81 159 -126 250 -88 44 19 34 42 -11
25 -118 -45 -236 47 -236 185 l0 41 55 18 c30 9 74 32 97 51 80 64 74 64 216
7 159 -63 231 -82 319 -82 171 0 263 113 263 326 0 256 -146 448 -390 513 -92
24 -144 28 -235 20z m-739 -244 c56 -58 64 -168 19 -255 -30 -58 -96 -77 -144
-44 -87 61 -79 283 12 327 42 21 75 13 113 -28z m938 9 c23 -24 56 -106 56
-140 0 -89 -61 -184 -117 -184 -118 0 -167 225 -71 327 31 34 96 32 132 -3z
m-399 -462 c28 -9 50 -21 49 -27 0 -16 -93 -74 -137 -86 -22 -6 -55 -8 -72 -5
-34 7 -157 77 -162 93 -2 5 18 17 44 26 66 22 213 21 278 -1z"/>
<path d="M2146 2383 c-11 -11 -6 -23 9 -23 8 0 15 4 15 9 0 13 -16 22 -24 14z"/>
<path d="M2870 2370 c0 -5 5 -10 10 -10 6 0 10 5 10 10 0 6 -4 10 -10 10 -5 0
-10 -4 -10 -10z"/>
<path d="M2000 2325 c0 -9 5 -15 11 -13 6 2 11 8 11 13 0 5 -5 11 -11 13 -6 2
-11 -4 -11 -13z"/>
<path d="M3010 2325 c0 -9 5 -15 11 -13 6 2 11 8 11 13 0 5 -5 11 -11 13 -6 2
-11 -4 -11 -13z"/>
<path d="M2102 2241 c2 -7 7 -12 11 -12 12 1 9 15 -3 20 -7 2 -11 -2 -8 -8z"/>
<path d="M2912 2241 c2 -7 7 -12 11 -12 12 1 9 15 -3 20 -7 2 -11 -2 -8 -8z"/>
<path d="M2183 1640 c-63 -26 -73 -172 -14 -217 12 -9 99 -12 332 -13 303 0
316 1 337 20 28 26 36 58 30 122 -4 40 -12 57 -32 75 -27 23 -28 23 -329 22
-166 0 -312 -4 -324 -9z m638 -13 c44 -34 54 -135 18 -181 l-20 -26 -318 0
c-303 0 -319 1 -336 20 -39 43 -27 166 18 188 33 16 617 15 638 -1z"/>
</g>
</svg>